Coordinates
nRows=14
nColumns=24

# SIMM Motion File Header:
name Coordinates
datacolumns 24
datarows 14
otherdata 1
range 0.41732999999999998000 0.43032999999999999000
endheader
time	pelvis_tx	pelvis_ty	pelvis_tz	pelvis_tilt	pelvis_list	pelvis_rotation	hip_flexion_r	hip_adduction_r	hip_rotation_r	knee_angle_r	ankle_angle_r	subtalar_angle_r	mtp_angle_r	hip_flexion_l	hip_adduction_l	hip_rotation_l	knee_angle_l	ankle_angle_l	subtalar_angle_l	mtp_angle_l	lumbar_extension	lumbar_bending	lumbar_rotation
      0.41732999999999998000	      0.90694600500645495000	      0.87116048828541537000	     -0.33463603052208668000	     -7.12521584849984980000	     -0.35225518306531012000	      7.05228539972420250000	     33.79222078992086900000	     -2.84155353123593150000	      2.17749014222887150000	    -25.85413185970422100000	      0.34263511624934684000	      0.00000000000000639850	     -0.00000000000004155213	      1.30174512311882730000	      3.22515922564421010000	     15.55403145706454500000	    -10.43003494317342500000	     11.90355383964156900000	     -0.00000000000003106196	     -0.00000000000020805319	     -2.89992020532285450000	     -0.12144257915807444000	     -3.46462741520464010000
      0.41832999999999998000	      0.90801676773528506000	      0.87101029773447280000	     -0.33469347080807732000	     -7.11996520188648320000	     -0.35425596231664164000	      7.08192962982984660000	     33.76875194283317700000	     -2.85916536439493370000	      2.22043064860582580000	    -25.48496500881988400000	      0.28919479619693322000	      0.00000000000000635067	     -0.00000000000004160119	      1.20949788543426400000	      3.21908226522393950000	     15.54103079727327100000	    -10.41615061773176800000	     11.94040504830834100000	     -0.00000000000003110500	     -0.00000000000020917944	     -2.91090436411922180000	     -0.12186956941795042000	     -3.48799848853452140000
      0.41932999999999998000	      0.90908857518488861000	      0.87085967000169096000	     -0.33475117777373886000	     -7.11440223910379820000	     -0.35615388763329359000	      7.11180690970381860000	     33.74448120708119300000	     -2.87710396695398090000	      2.26353172026376770000	    -25.11634465172020500000	      0.23622868089211690000	      0.00000000000000630470	     -0.00000000000004165063	      1.11702495106398470000	      3.21307793502871510000	     15.52783885220756200000	    -10.40247509597176800000	     11.97728921435724000000	     -0.00000000000003114513	     -0.00000000000021030939	     -2.92215387880592340000	     -0.12230826938421281000	     -3.51149594576410880000
      0.42032999999999998000	      0.91016351679681262000	      0.87070773072339125000	     -0.33480968477841311000	     -7.10790232781316610000	     -0.35774325114590744000	      7.14238333888276960000	     33.71780480533634300000	     -2.89602287771316110000	      2.30711448776467210000	    -24.74936377597451200000	      0.18468517983008889000	      0.00000000000000626433	     -0.00000000000004170125	      1.02387492663655920000	      3.20729149550862980000	     15.51407305131854600000	    -10.38942598525673600000	     12.01427225255252500000	     -0.00000000000003117650	     -0.00000000000021145042	     -2.93419946116362640000	     -0.12278209846963428000	     -3.53537255469281450000
      0.42132999999999998000	      0.91123845840873663000	      0.87055579144509154000	     -0.33486819178308730000	     -7.10140241652253310000	     -0.35933261465852134000	      7.17295976806172050000	     33.69112840359148500000	     -2.91494178847234100000	      2.35069725526557690000	    -24.38238290022881900000	      0.13314167876806088000	      0.00000000000000622397	     -0.00000000000004175187	      0.93072490220913362000	      3.20150505598854410000	     15.50030725042953100000	    -10.37637687454170400000	     12.05125529074780700000	     -0.00000000000003120786	     -0.00000000000021259144	     -2.94624504352132900000	     -0.12325592755505575000	     -3.55924916362152020000
      0.42232999999999998000	      0.91231624094422981000	      0.87040270199393555000	     -0.33492732016339266000	     -7.09406929689742680000	     -0.36065045097363840000	      7.20413451263291370000	     33.66239714039053900000	     -2.93469919001829460000	      2.39480578837704750000	    -24.01724834448930700000	      0.08396694846356528300	      0.00000000000000618991	     -0.00000000000004181761	      0.83698794614421024000	      3.19588598737591890000	     15.48602618569200100000	    -10.36390576959288300000	     12.08858573719436600000	     -0.00000000000003125392	     -0.00000000000021372394	     -2.95900198451278880000	     -0.12375882149592796000	     -3.58344360521659680000
      0.42332999999999998000	      0.91339497045424600000	      0.87024922915182745000	     -0.33498665566890834000	     -7.08645844116083180000	     -0.36187777822292350000	      7.23550869566818640000	     33.63298092337089400000	     -2.95473608849317190000	      2.43908957669203910000	    -23.65272922875185200000	      0.03558180841157734100	      0.00000000000000615795	     -0.00000000000004188838	      0.74305534620012148000	      3.19032270906577950000	     15.47157336633829900000	    -10.35162733323280000000	     12.12603198639134800000	     -0.00000000000003130488	     -0.00000000000021485359	     -2.97199604504883340000	     -0.12427140372195036000	     -3.60774399103379690000
      0.42432999999999998000	      0.91447655095509062000	      0.87009460685525397000	     -0.33504646845925223000	     -7.07805799942297840000	     -0.36281495777357736000	      7.26740977286560060000	     33.60166976584982700000	     -2.97557800256542660000	      2.48401352115309320000	    -23.29040994633178100000	     -0.00993378758867876670	      0.00000000000000611771	     -0.00000000000004194367	      0.64858293374354026000	      3.18493092976908710000	     15.45654821080547100000	    -10.33992400916198300000	     12.16395879873950200000	     -0.00000000000003134966	     -0.00000000000021598931	     -2.98566194236896410000	     -0.12484401157450149000	     -3.63230009433164190000
      0.42532999999999999000	      0.91555908178621115000	      0.86993960140719195000	     -0.33510644034453885000	     -7.06939436235137380000	     -0.36365542142468743000	      7.29948648145039500000	     33.56972696149494300000	     -2.99668825517014080000	      2.52915085099616780000	    -22.92882394168416800000	     -0.05449286890502354900	      0.00000000000000607471	     -0.00000000000004199379	      0.55393058378279469000	      3.17959631681021060000	     15.44133227654626800000	    -10.32841238918759100000	     12.20204579880471300000	     -0.00000000000003139237	     -0.00000000000021712704	     -2.99955178528379070000	     -0.12543662796922889000	     -3.65694143678970150000
      0.42632999999999999000	      0.91664266243351034000	      0.86978420607647255000	     -0.33516655883183344000	     -7.06043889424682460000	     -0.36439680717353984000	      7.33175259992868790000	     33.53711736080865800000	     -3.01808009483704700000	      2.57454323455446770000	    -22.56816919207263800000	     -0.09807664992402034800	      0.00000000000000603373	     -0.00000000000004204491	      0.45909120364344191000	      3.17430675186837740000	     15.42592079411848800000	    -10.31712268048789700000	     12.24007711802329000000	     -0.00000000000003144506	     -0.00000000000021822003	     -3.01369360267936730000	     -0.12604258658226863000	     -3.68167443546010990000
      0.42732999999999999000	      0.91772939252934527000	      0.86962764109778079000	     -0.33522711712515174000	     -7.05060793304344370000	     -0.36484095921561938000	      7.36458694808747530000	     33.50250737112816100000	     -3.04031669569052940000	      2.62070077925844290000	    -22.21030820756934800000	     -0.13873453005097539000	      0.00000000000000599881	     -0.00000000000004209905	      0.36369073296826809000	      3.16915233097767500000	     15.40992266718498600000	    -10.30649870561230400000	     12.27794139470196600000	     -0.00000000000003152767	     -0.00000000000021917881	     -3.02859134351719380000	     -0.12668857185024537000	     -3.70668240276756270000
      0.42832999999999999000	      0.91881612262518009000	      0.86947107611908903000	     -0.33528767541847004000	     -7.04077697184006370000	     -0.36528511125769897000	      7.39742129624626180000	     33.46789738144766300000	     -3.06255329654401190000	      2.66685832396241770000	    -21.85244722306605400000	     -0.17939241017793039000	      0.00000000000000596388	     -0.00000000000004215319	      0.26829026229309433000	      3.16399791008697310000	     15.39392454025148500000	    -10.29587473073671200000	     12.31580567138064100000	     -0.00000000000003161029	     -0.00000000000022013759	     -3.04348908435502040000	     -0.12733455711822211000	     -3.73169037007501500000
      0.42932999999999999000	      0.91990597007207209000	      0.86931355233968310000	     -0.33534862311098679000	     -7.03002878420700310000	     -0.36549682676889100000	      7.43084223082444510000	     33.43133371973289100000	     -3.08556666790074100000	      2.71376123578620600000	    -21.49769851659528900000	     -0.21814340140412786000	      0.00000000000000592443	     -0.00000000000004219329	      0.17233789804386446000	      3.15886625449419970000	     15.37746095942433800000	    -10.28594410455693100000	     12.35222124511288700000	     -0.00000000000003168757	     -0.00000000000022110351	     -3.05920080464199630000	     -0.12793961593648934000	     -3.75699748998315730000
      0.43032999999999999000	      0.92099685663598319000	      0.86915570896003913000	     -0.33540970060323633000	     -7.01897485443071640000	     -0.36563106343645402000	      7.46445869420909250000	     33.39411883400669000000	     -3.10883896275855150000	      2.76091260331659780000	    -21.14398723613536300000	     -0.25625876299674083000	      0.00000000000000588347	     -0.00000000000004222871	      0.07620156926994965700	      3.15374218733406900000	     15.36084222729931200000	    -10.27624459460908900000	     12.38815391786298800000	     -0.00000000000003176307	     -0.00000000000022207181	     -3.07518385141202180000	     -0.12853103260485343000	     -3.78240432742486290000
